<?xml version="1.0" encoding="UTF-8" standalone="no"?>
<svg
   xmlns:dc="http://purl.org/dc/elements/1.1/"
   xmlns:cc="http://creativecommons.org/ns#"
   xmlns:rdf="http://www.w3.org/1999/02/22-rdf-syntax-ns#"
   xmlns:svg="http://www.w3.org/2000/svg"
   xmlns="http://www.w3.org/2000/svg"
   xmlns:sodipodi="http://sodipodi.sourceforge.net/DTD/sodipodi-0.dtd"
   xmlns:inkscape="http://www.inkscape.org/namespaces/inkscape"
   viewBox="0 0 24.999999 28.000001"
   version="1.1"
   id="svg14"
   sodipodi:docname="css.svg"
   width="25"
   height="28"
   inkscape:version="1.0.2-2 (e86c870879, 2021-01-15)">
  <metadata
     id="metadata20">
    <rdf:RDF>
      <cc:Work
         rdf:about="">
        <dc:format>image/svg+xml</dc:format>
        <dc:type
           rdf:resource="http://purl.org/dc/dcmitype/StillImage" />
        <dc:title></dc:title>
      </cc:Work>
    </rdf:RDF>
  </metadata>
  <defs
     id="defs18" />
  <sodipodi:namedview
     pagecolor="#ffffff"
     bordercolor="#666666"
     borderopacity="1"
     objecttolerance="10"
     gridtolerance="10"
     guidetolerance="10"
     inkscape:pageopacity="0"
     inkscape:pageshadow="2"
     inkscape:window-width="1920"
     inkscape:window-height="1017"
     id="namedview16"
     showgrid="false"
     inkscape:zoom="6.640625"
     inkscape:cx="11.72"
     inkscape:cy="48.793883"
     inkscape:window-x="-8"
     inkscape:window-y="-8"
     inkscape:window-maximized="1"
     inkscape:current-layer="svg14"
     inkscape:document-rotation="0"
     showguides="false" />
  <path
     fill="#1572b6"
     d="M 2.275073,25.200827 0,0 H 25 L 22.722664,25.197027 12.484839,28 Z"
     id="path2"
     style="stroke-width:0.224873" />
  <path
     fill="#33a9dc"
     d="M 12.500226,25.857602 20.772991,23.59252 22.71927,2.060385 H 12.500226 Z"
     id="path4"
     style="stroke-width:0.224873" />
  <path
     fill="#ffffff"
     d="M 12.500226,11.190659 H 16.6417 l 0.286024,-3.164992 h -4.427498 v -3.0908 h 7.848027 l -0.07513,0.829294 -0.76937,8.517298 h -7.00353 z"
     id="path6"
     style="stroke-width:0.224873" />
  <path
     fill="#ebebeb"
     d="m 12.518782,19.217666 -0.0138,0.004 L 9.019509,18.292259 8.796618,15.827171 H 5.655323 l 0.438315,4.853077 6.410888,1.757138 0.01426,-0.004 z"
     id="path8"
     style="stroke-width:0.224873" />
  <path
     fill="#ffffff"
     d="m 16.375589,14.15073 -0.376992,4.139093 -3.490677,0.930525 v 3.21572 l 6.416093,-1.75602 0.04707,-0.522247 0.544444,-6.007071 z"
     id="path10"
     style="stroke-width:0.224873" />
  <path
     fill="#ebebeb"
     d="m 12.510862,4.934867 v 3.0908 H 4.951122 L 4.888442,7.331125 4.745882,5.764161 4.670982,4.934867 Z m -0.01067,6.256239 v 3.0908 H 9.058619 L 8.995939,13.587365 8.853153,12.020399 8.778483,11.191106 Z"
     id="path12"
     style="stroke-width:0.224873" />
</svg>
