<?xml version="1.0" encoding="UTF-8" standalone="no"?>
<svg
   xmlns:dc="http://purl.org/dc/elements/1.1/"
   xmlns:cc="http://creativecommons.org/ns#"
   xmlns:rdf="http://www.w3.org/1999/02/22-rdf-syntax-ns#"
   xmlns:svg="http://www.w3.org/2000/svg"
   xmlns="http://www.w3.org/2000/svg"
   xmlns:sodipodi="http://sodipodi.sourceforge.net/DTD/sodipodi-0.dtd"
   xmlns:inkscape="http://www.inkscape.org/namespaces/inkscape"
   viewBox="0 0 24.690001 28"
   version="1.1"
   id="svg16"
   sodipodi:docname="html5.svg"
   width="24.690001"
   height="28"
   inkscape:version="1.0.2-2 (e86c870879, 2021-01-15)">
  <metadata
     id="metadata22">
    <rdf:RDF>
      <cc:Work
         rdf:about="">
        <dc:format>image/svg+xml</dc:format>
        <dc:type
           rdf:resource="http://purl.org/dc/dcmitype/StillImage" />
      </cc:Work>
    </rdf:RDF>
  </metadata>
  <defs
     id="defs20" />
  <sodipodi:namedview
     pagecolor="#ffffff"
     bordercolor="#666666"
     borderopacity="1"
     objecttolerance="10"
     gridtolerance="10"
     guidetolerance="10"
     inkscape:pageopacity="0"
     inkscape:pageshadow="2"
     inkscape:window-width="1920"
     inkscape:window-height="1017"
     id="namedview18"
     showgrid="false"
     inkscape:zoom="26.5625"
     inkscape:cx="12.345"
     inkscape:cy="17.011765"
     inkscape:window-x="-8"
     inkscape:window-y="-8"
     inkscape:window-maximized="1"
     inkscape:current-layer="svg16" />
  <title
     id="title2">file_type_html</title>
  <polygon
     points="28.345,2 26.095,27.197 15.985,30 5.902,27.201 3.655,2 "
     style="fill:#e44f26"
     id="polygon4"
     transform="translate(-3.655,-2)" />
  <polygon
     points="26.092,4.061 16,4.061 16,27.858 24.17,25.593 "
     style="fill:#f1662a"
     id="polygon6"
     transform="translate(-3.655,-2)" />
  <polygon
     points="11.628,10.242 16,10.242 16,7.151 15.989,7.151 8.25,7.151 8.324,7.981 9.083,16.498 16,16.498 16,13.407 11.91,13.407 "
     style="fill:#ebebeb"
     id="polygon8"
     transform="translate(-3.655,-2)" />
  <polygon
     points="12.544,20.509 12.324,18.044 10.651,18.044 9.221,18.044 9.654,22.896 15.986,24.654 16,24.65 16,21.434 15.986,21.438 "
     style="fill:#ebebeb"
     id="polygon10"
     transform="translate(-3.655,-2)" />
  <polygon
     points="19.795,16.498 19.437,20.507 15.989,21.437 15.989,24.653 22.326,22.896 22.372,22.374 23.098,14.237 23.174,13.407 22.341,13.407 15.989,13.407 15.989,16.498 "
     style="fill:#ffffff"
     id="polygon12"
     transform="translate(-3.655,-2)" />
  <polygon
     points="15.989,10.235 15.989,10.242 23.445,10.242 23.445,10.242 23.455,10.242 23.517,9.548 23.658,7.981 23.732,7.151 15.989,7.151 15.989,9.071 "
     style="fill:#ffffff"
     id="polygon14"
     transform="translate(-3.655,-2)" />
</svg>
