<?xml version="1.0" encoding="UTF-8" standalone="no"?>
<svg
   xmlns:dc="http://purl.org/dc/elements/1.1/"
   xmlns:cc="http://creativecommons.org/ns#"
   xmlns:rdf="http://www.w3.org/1999/02/22-rdf-syntax-ns#"
   xmlns:svg="http://www.w3.org/2000/svg"
   xmlns="http://www.w3.org/2000/svg"
   xmlns:sodipodi="http://sodipodi.sourceforge.net/DTD/sodipodi-0.dtd"
   xmlns:inkscape="http://www.inkscape.org/namespaces/inkscape"
   inkscape:version="1.0 (4035a4fb49, 2020-05-01)"
   sodipodi:docname="directionLeft.svg"
   xml:space="preserve"
   width="128px"
   viewBox="0 0 128 128"
   version="1.1"
   style="enable-background:new 0 0 128 128;"
   id="Layer_1"
   height="128px"><metadata
     id="metadata13"><rdf:RDF><cc:Work
         rdf:about=""><dc:format>image/svg+xml</dc:format><dc:type
           rdf:resource="http://purl.org/dc/dcmitype/StillImage" /></cc:Work></rdf:RDF></metadata><defs
     id="defs11" /><sodipodi:namedview
     inkscape:current-layer="Layer_1"
     inkscape:window-maximized="1"
     inkscape:window-y="-9"
     inkscape:window-x="-9"
     inkscape:cy="63.791531"
     inkscape:cx="64"
     inkscape:zoom="4.796875"
     showgrid="false"
     id="namedview9"
     inkscape:window-height="827"
     inkscape:window-width="1440"
     inkscape:pageshadow="2"
     inkscape:pageopacity="0"
     guidetolerance="10"
     gridtolerance="10"
     objecttolerance="10"
     borderopacity="1"
     bordercolor="#666666"
     pagecolor="#ffffff" /><g
     style="fill:#ffffff"
     id="g6"><line
       id="line2"
       y2="64"
       y1="111"
       x2="40.5"
       x1="87.5"
       style="fill:#ffffff;stroke:#2F3435;stroke-width:12;stroke-linecap:square;stroke-miterlimit:10" /><line
       id="line4"
       y2="17"
       y1="64"
       x2="87.5"
       x1="40.5"
       style="fill:#ffffff;stroke:#2F3435;stroke-width:12;stroke-linecap:square;stroke-miterlimit:10" /></g><path
     id="path17"
     d="M 59.830521,91.622052 32.208862,63.999804 59.880693,36.327972 87.552525,8.6561396 91.619654,12.718949 c 2.236921,2.234546 4.067244,4.156465 4.067386,4.270933 1.42e-4,0.114468 -10.52988,10.738572 -23.400047,23.60912 L 48.886688,64 72.286993,87.400998 c 12.870167,12.870552 23.400303,23.492612 23.400303,23.604592 0,0.20221 -7.930542,8.23796 -8.130589,8.23845 -0.05749,1.5e-4 -12.534275,-12.42975 -27.726186,-27.621988 z"
     style="fill:#ffffff;stroke-width:0.208469" /><path
     id="path19"
     d="M 59.934755,91.517817 32.417333,63.999802 59.986131,36.431004 87.554929,8.8622065 91.321775,12.613514 c 2.071768,2.063219 3.862386,3.923776 3.979155,4.134571 0.183614,0.331466 -2.952036,3.550935 -23.20129,23.821488 L 48.686043,64.007799 71.200665,86.570674 c 12.383043,12.409583 22.927792,23.005256 23.432774,23.545946 l 0.918148,0.98307 -3.933267,3.96807 c -2.163296,2.18244 -3.985663,3.96807 -4.049705,3.96807 -0.06404,0 -12.499279,-12.38311 -27.63386,-27.518013 z"
     style="fill:#b3b3b3;stroke-width:0.208469" /></svg>
