<?xml version="1.0" encoding="UTF-8" standalone="no"?>
<svg
   xmlns:dc="http://purl.org/dc/elements/1.1/"
   xmlns:cc="http://creativecommons.org/ns#"
   xmlns:rdf="http://www.w3.org/1999/02/22-rdf-syntax-ns#"
   xmlns:svg="http://www.w3.org/2000/svg"
   xmlns="http://www.w3.org/2000/svg"
   xmlns:sodipodi="http://sodipodi.sourceforge.net/DTD/sodipodi-0.dtd"
   xmlns:inkscape="http://www.inkscape.org/namespaces/inkscape"
   height="2192.3682"
   width="2221.8086"
   viewBox="-13.150631 4.92 259.46701 238.63796"
   version="1.1"
   id="svg58"
   sodipodi:docname="edge.svg"
   inkscape:version="1.0.2-2 (e86c870879, 2021-01-15)">
  <metadata
     id="metadata64">
    <rdf:RDF>
      <cc:Work
         rdf:about="">
        <dc:format>image/svg+xml</dc:format>
        <dc:type
           rdf:resource="http://purl.org/dc/dcmitype/StillImage" />
        <dc:title></dc:title>
      </cc:Work>
    </rdf:RDF>
  </metadata>
  <defs
     id="defs62" />
  <sodipodi:namedview
     pagecolor="#ffffff"
     bordercolor="#666666"
     borderopacity="1"
     objecttolerance="10"
     gridtolerance="10"
     guidetolerance="10"
     inkscape:pageopacity="0"
     inkscape:pageshadow="2"
     inkscape:window-width="1920"
     inkscape:window-height="1012"
     id="namedview60"
     showgrid="false"
     showguides="false"
     inkscape:zoom="0.3384"
     inkscape:cx="1167.1136"
     inkscape:cy="1098.7667"
     inkscape:window-x="-8"
     inkscape:window-y="-8"
     inkscape:window-maximized="1"
     inkscape:current-layer="svg58" />
  <linearGradient
     id="a"
     gradientTransform="matrix(1,0,0,-1,-14.309629,257.2227)"
     gradientUnits="userSpaceOnUse"
     x1="63.330002"
     x2="241.67"
     y1="84.029999"
     y2="84.029999">
    <stop
       offset="0"
       stop-color="#0c59a4"
       id="stop2" />
    <stop
       offset="1"
       stop-color="#114a8b"
       id="stop4" />
  </linearGradient>
  <radialGradient
     id="b"
     cx="161.83"
     cy="68.910004"
     gradientTransform="matrix(1,0,0,-0.95,-14.309629,240.0627)"
     gradientUnits="userSpaceOnUse"
     r="95.379997">
    <stop
       offset=".72"
       stop-opacity="0"
       id="stop7" />
    <stop
       offset=".95"
       stop-opacity=".53"
       id="stop9" />
    <stop
       offset="1"
       id="stop11" />
  </radialGradient>
  <linearGradient
     id="c"
     gradientTransform="matrix(1,0,0,-1,-14.309629,257.2227)"
     gradientUnits="userSpaceOnUse"
     x1="157.35001"
     x2="45.959999"
     y1="161.39"
     y2="40.060001">
    <stop
       offset="0"
       stop-color="#1b9de2"
       id="stop14" />
    <stop
       offset=".16"
       stop-color="#1595df"
       id="stop16" />
    <stop
       offset=".67"
       stop-color="#0680d7"
       id="stop18" />
    <stop
       offset="1"
       stop-color="#0078d4"
       id="stop20" />
  </linearGradient>
  <radialGradient
     id="d"
     cx="-340.29001"
     cy="62.990002"
     gradientTransform="matrix(0.15,-0.99,-0.8,-0.12,162.33037,-134.1773)"
     gradientUnits="userSpaceOnUse"
     r="143.24001">
    <stop
       offset=".76"
       stop-opacity="0"
       id="stop23" />
    <stop
       offset=".95"
       stop-opacity=".5"
       id="stop25" />
    <stop
       offset="1"
       id="stop27" />
  </radialGradient>
  <radialGradient
     id="e"
     cx="113.37"
     cy="570.21002"
     gradientTransform="matrix(-0.04,1,2.13,0.08,-1193.8496,-115.4673)"
     gradientUnits="userSpaceOnUse"
     r="202.42999">
    <stop
       offset="0"
       stop-color="#35c1f1"
       id="stop30" />
    <stop
       offset=".11"
       stop-color="#34c1ed"
       id="stop32" />
    <stop
       offset=".23"
       stop-color="#2fc2df"
       id="stop34" />
    <stop
       offset=".31"
       stop-color="#2bc3d2"
       id="stop36" />
    <stop
       offset=".67"
       stop-color="#36c752"
       id="stop38" />
  </radialGradient>
  <radialGradient
     id="f"
     cx="376.51999"
     cy="567.96997"
     gradientTransform="matrix(0.28,0.96,0.78,-0.23,-321.52063,-153.1361)"
     gradientUnits="userSpaceOnUse"
     r="97.339996">
    <stop
       offset="0"
       stop-color="#66eb6e"
       id="stop41" />
    <stop
       offset="1"
       stop-color="#66eb6e"
       stop-opacity="0"
       id="stop43" />
  </radialGradient>
  <path
     d="m 221.37037,186.6827 a 93.73,93.73 0 0 1 -10.54,4.71 101.87,101.87 0 0 1 -35.9,6.46 c -47.32,0 -88.539999,-32.55 -88.539999,-74.32 A 31.48,31.48 0 0 1 102.82037,96.222696 c -42.799999,1.8 -53.799999,46.400004 -53.799999,72.530004 0,73.88 68.089999,81.37 82.759999,81.37 7.91,0 19.84,-2.3 27,-4.56 l 1.31,-0.44 a 128.34,128.34 0 0 0 66.6,-52.8 4,4 0 0 0 -5.32,-5.64 z"
     fill="url(#a)"
     id="path46"
     style="fill:url(#a)" />
  <path
     d="m 221.37037,186.6827 a 93.73,93.73 0 0 1 -10.54,4.71 101.87,101.87 0 0 1 -35.9,6.46 c -47.32,0 -88.539999,-32.55 -88.539999,-74.32 A 31.48,31.48 0 0 1 102.82037,96.222696 c -42.799999,1.8 -53.799999,46.400004 -53.799999,72.530004 0,73.88 68.089999,81.37 82.759999,81.37 7.91,0 19.84,-2.3 27,-4.56 l 1.31,-0.44 a 128.34,128.34 0 0 0 66.6,-52.8 4,4 0 0 0 -5.32,-5.64 z"
     fill="url(#b)"
     opacity="0.35"
     id="path48"
     style="fill:url(#b)" />
  <path
     d="m 96.030371,237.5627 a 79.2,79.2 0 0 1 -22.74,-21.34 80.72,80.72 0 0 1 29.529999,-120.000004 c 3.12,-1.47 8.45,-4.13 15.54,-4 a 32.35,32.35 0 0 1 25.69,13.000004 31.88,31.88 0 0 1 6.36,18.66 c 0,-0.21 24.46,-79.600004 -79.999999,-79.600004 -43.9,0 -80,41.66 -80,78.210004 a 130.15,130.15 0 0 0 12.1099996,56 128,128 0 0 0 156.3799994,67.11 75.55,75.55 0 0 1 -62.779999,-8 z"
     fill="url(#c)"
     id="path50"
     style="fill:url(#c)" />
  <path
     d="m 96.030371,237.5627 a 79.2,79.2 0 0 1 -22.74,-21.34 80.72,80.72 0 0 1 29.529999,-120.000004 c 3.12,-1.47 8.45,-4.13 15.54,-4 a 32.35,32.35 0 0 1 25.69,13.000004 31.88,31.88 0 0 1 6.36,18.66 c 0,-0.21 24.46,-79.600004 -79.999999,-79.600004 -43.9,0 -80,41.66 -80,78.210004 a 130.15,130.15 0 0 0 12.1099996,56 128,128 0 0 0 156.3799994,67.11 75.55,75.55 0 0 1 -62.779999,-8 z"
     fill="url(#d)"
     opacity="0.41"
     id="path52"
     style="fill:url(#d)" />
  <path
     d="m 142.63037,145.0027 c -0.81,1.05 -3.3,2.5 -3.3,5.66 0,2.61 1.7,5.12 4.72,7.23 14.38,10 41.49,8.68 41.56,8.68 a 59.56,59.56 0 0 0 30.27,-8.35 61.38,61.38 0 0 0 30.43,-52.88 c 0.26,-22.410004 -8,-37.310004 -11.34,-43.910004 -21.19,-41.45 -66.93,-65.2900004 -116.67,-65.2900004 A 128,128 0 0 0 -9.699629,122.3427 c 0.48,-36.540004 36.8,-66.050004 80,-66.050004 3.5,0 23.46,0.34 41.999999,10.07 16.34,8.58 24.9,18.94 30.85,29.21 6.18,10.670004 7.28,24.150004 7.28,29.520004 0,5.37 -2.74,13.33 -7.8,19.91 z"
     fill="url(#e)"
     id="path54"
     style="fill:url(#e)" />
  <path
     d="m 139.17937,149.1439 c -0.81,1.05 -3.3,2.5 -3.3,5.66 0,2.61 1.7,5.12 4.72,7.23 14.38,10 41.49,8.68 41.56,8.68 a 59.56,59.56 0 0 0 30.27,-8.35 61.38,61.38 0 0 0 30.43,-52.88 c 0.26,-22.410002 -8,-37.310002 -11.34,-43.910002 -21.19,-41.45 -66.93,-65.29000048 -116.67,-65.29000048 A 128,128 0 0 0 -13.150631,126.4839 c 0.48,-36.540002 36.8,-66.050002 80,-66.050002 3.5,0 23.46,0.34 42.000001,10.07 16.34,8.58 24.9,18.94 30.85,29.21 6.18,10.670002 7.28,24.150002 7.28,29.520002 0,5.37 -2.74,13.33 -7.8,19.91 z"
     fill="url(#f)"
     id="path56"
     style="fill:url(#f)" />
</svg>
